<?xml version="1.0" encoding="utf-8"?>
<!-- Generator: Adobe Illustrator 19.0.0, SVG Export Plug-In . SVG Version: 6.00 Build 0)  -->
<svg version="1.1" id="Layer_1" xmlns="http://www.w3.org/2000/svg" xmlns:xlink="http://www.w3.org/1999/xlink" x="0px" y="0px"
	 viewBox="0 0 121.4 126.8" style="enable-background:new 0 0 121.4 126.8;" xml:space="preserve">
<style type="text/css">
	.st0{fill:#DEDFE0;}
	.st1{opacity:0.3;}
	.st2{fill:#CC5568;}
	.st3{opacity:0.5;}
	.st4{fill:#F68256;}
	.st5{fill:#F9FAFB;}
	.st6{fill:#1BB2CC;}
	.st7{fill:#19A5BD;}
	.st8{opacity:0.1;}
	.st9{fill:#FFFFFF;}
	.st10{fill:#F2F7F6;}
	.st11{fill:#F9FFFE;}
	.st12{fill:#D1D1D1;}
	.st13{fill:#FFFFFF;stroke:#D1D1D1;stroke-miterlimit:10;}
	.st14{fill:#DF2777;}
</style>
<g>
	<g>
		<path class="st0" d="M20.1,56.6c-0.8-0.3-7.4-3.3-8.4-8.7c-1-5.6,7.6-10.3,9.3-11.2l1.7,3.3c-3.3,1.7-7.7,5.2-7.4,7.2
			c0.5,2.9,4.7,5.2,6.2,5.9L20.1,56.6z"/>
	</g>
</g>
<g>
	<g>
		<path class="st0" d="M61.3,56.6l-1.5-3.4c1.6-0.7,5.7-3,6.2-5.9c0.4-2-4-5.5-7.4-7.2l1.7-3.3c1.7,0.9,10.3,5.6,9.3,11.2
			C68.7,53.2,62,56.2,61.3,56.6z"/>
	</g>
</g>
<g class="st1">
	<ellipse class="st2" cx="43.4" cy="118.5" rx="43.4" ry="8.2"/>
</g>
<g class="st3">
	<path class="st4" d="M59,11.9c-7.8-8.7-18.3-8.2-18.3-8.2s-10.5-0.5-18.3,8.2C17.9,16.9,15,23.7,15,30c0,6.3,2.8,13.3,6.9,17.4
		h18.8h18.8c4.1-4.1,6.9-11.1,6.9-17.4C66.4,23.7,63.6,16.9,59,11.9z"/>
</g>
<g class="st3">
	<path class="st4" d="M57.1,15.6c-7-7.7-16.4-7.3-16.4-7.3s-9.4-0.4-16.4,7.3c-4.1,4.5-6.6,10.6-6.6,16.2c0,5.6,2.5,11.9,6.2,15.6
		h16.8h16.8c3.7-3.7,6.2-10,6.2-15.6C63.7,26.2,61.2,20.1,57.1,15.6z"/>
</g>
<g>
	<g>
		<ellipse class="st0" cx="17.4" cy="116.8" rx="1" ry="1.7"/>
	</g>
	<g>
		<ellipse class="st0" cx="19.3" cy="116.8" rx="1" ry="1.7"/>
	</g>
	<g>
		<ellipse class="st0" cx="21.3" cy="116.8" rx="1" ry="1.7"/>
	</g>
	<g>
		<ellipse class="st0" cx="23.3" cy="116.8" rx="1" ry="1.7"/>
	</g>
	<g>
		<ellipse class="st0" cx="25.2" cy="116.8" rx="1" ry="1.7"/>
	</g>
	<g>
		<ellipse class="st0" cx="27.2" cy="116.8" rx="1" ry="1.7"/>
	</g>
	<g>
		<ellipse class="st0" cx="29.2" cy="116.8" rx="1" ry="1.7"/>
	</g>
	<g>
		<ellipse class="st0" cx="31.2" cy="116.8" rx="1" ry="1.7"/>
	</g>
	<g>
		<ellipse class="st0" cx="33.1" cy="116.8" rx="1" ry="1.7"/>
	</g>
	<g>
		<ellipse class="st0" cx="35.1" cy="116.8" rx="1" ry="1.7"/>
	</g>
	<g>
		<ellipse class="st0" cx="37.1" cy="116.8" rx="1" ry="1.7"/>
	</g>
</g>
<g>
	<g>
		<ellipse class="st0" cx="44.3" cy="116.8" rx="1" ry="1.7"/>
	</g>
	<g>
		<ellipse class="st0" cx="46.3" cy="116.8" rx="1" ry="1.7"/>
	</g>
	<g>
		<ellipse class="st0" cx="48.3" cy="116.8" rx="1" ry="1.7"/>
	</g>
	<g>
		<ellipse class="st0" cx="50.3" cy="116.8" rx="1" ry="1.7"/>
	</g>
	<g>
		<ellipse class="st0" cx="52.2" cy="116.8" rx="1" ry="1.7"/>
	</g>
	<g>
		<ellipse class="st0" cx="54.2" cy="116.8" rx="1" ry="1.7"/>
	</g>
	<g>
		<ellipse class="st0" cx="56.2" cy="116.8" rx="1" ry="1.7"/>
	</g>
	<g>
		<ellipse class="st0" cx="58.2" cy="116.8" rx="1" ry="1.7"/>
	</g>
	<g>
		<ellipse class="st0" cx="60.1" cy="116.8" rx="1" ry="1.7"/>
	</g>
	<g>
		<ellipse class="st0" cx="62.1" cy="116.8" rx="1" ry="1.7"/>
	</g>
	<g>
		<ellipse class="st0" cx="64.1" cy="116.8" rx="1" ry="1.7"/>
	</g>
</g>
<g>
	<path class="st5" d="M59,12.1C51.2,3.5,40.7,4,40.7,4s-10.5-0.5-18.3,8.2c-4.5,5-7.4,11.8-7.4,18.1s2.8,13.3,6.9,17.4h18.8h18.8
		c4.1-4.1,6.9-11.1,6.9-17.4S63.6,17.1,59,12.1z"/>
</g>
<g>
	<path class="st6" d="M56.9,15.8C50,8.1,40.7,8.5,40.7,8.5s-9.3-0.4-16.2,7.3c-4,4.5-6.6,10.6-6.6,16.2c0,5.6,2.5,11.9,6.1,15.6
		h16.7h16.7c3.6-3.7,6.1-10,6.1-15.6C63.5,26.4,61,20.3,56.9,15.8z"/>
</g>
<g>
	<g>
		<path class="st7" d="M18.2,34.9c0.7,4.8,2.9,9.7,5.9,12.7h33.3c2.8-2.8,4.9-7.2,5.7-11.6c-5.4,4.7-13.2,7.6-21.9,7.6
			C32,43.6,23.7,40.2,18.2,34.9z"/>
	</g>
</g>
<g class="st8">
	<path class="st9" d="M57.7,16.7c0,0.1-0.1,0.2-0.1,0.3c-0.5,11.8-5.3,22.3-13.3,30.6h13.1c3.6-3.7,6.1-10,6.1-15.6
		C63.5,26.8,61.3,21.1,57.7,16.7z"/>
</g>
<g class="st8">
	<path class="st9" d="M25.6,35.5c1.7,1,3.5,1.7,5.4,2.3c-1-9,0.9-17.9,5.8-25.7c0-0.1,0.1-0.2,0.1-0.2c-4.6,1.2-8.8,4-11.3,7.6
		c-2.7,3.8-4,9.4-3.3,13.6L25.6,35.5z"/>
</g>
<g>
	<g>
		<path class="st10" d="M23.4,91l14.7-2.1v-0.4h2.6h2.6v0.4L58.1,91c0.1-4,0-6.2,0-16.2c0-17.3-1.4-25.3-1.4-25.3H24.7
			c0,0-1.4,8-1.4,25.3C23.3,84.8,23.2,87,23.4,91z"/>
	</g>
	<g>
		<path class="st11" d="M24,106.3c0,0-7.6,1.3-7.6,5.5c0,4.2,0,5.2,0,5.2h21.7V95.7H23.5C23.6,98.2,23.8,101.5,24,106.3z"/>
	</g>
	<g>
		<path class="st11" d="M23.4,91c0,1.3,0.1,2.8,0.2,4.7h14.5v-6.9L23.4,91z"/>
	</g>
	<g>
		<path class="st11" d="M14.3,58.9c0,6.3,0,26.1,0,26.1s-0.8,6.2,7.9,6.2L23,91l0.4-0.1c-0.1-4-0.1-6.2-0.1-16.2
			c0-17.3,1.4-25.3,1.4-25.3S14.3,52.6,14.3,58.9z"/>
	</g>
	<g>
		<polygon class="st11" points="38.1,88.9 40.7,88.5 38.1,88.5 		"/>
	</g>
	<g>
		<path class="st11" d="M43.4,95.7v21.2h21.7c0,0,0-1,0-5.2c0-4.2-7.6-5.5-7.6-5.5c0.2-4.8,0.4-8,0.5-10.5H43.4z"/>
	</g>
	<g>
		<path class="st11" d="M58.1,91l0.4,0.1l0.8,0.1c8.7,0,7.9-6.2,7.9-6.2s0-19.8,0-26.1c0-6.3-10.4-9.4-10.4-9.4s1.4,8,1.4,25.3
			C58.1,84.8,58.2,87,58.1,91z"/>
	</g>
	<g>
		<path class="st11" d="M58.1,91l-14.7-2.1v6.9h14.5C58,93.7,58,92.3,58.1,91z"/>
	</g>
	<g>
		<polygon class="st11" points="40.7,88.5 43.4,88.9 43.4,88.5 		"/>
	</g>
</g>
<g>
	<path class="st0" d="M59.6,49.7c0,0.5-0.8,0.9-1.9,0.9h-34c-1,0-1.9-0.4-1.9-0.9v-2c0-0.5,0.8-0.9,1.9-0.9h34c1,0,1.9,0.4,1.9,0.9
		V49.7z"/>
</g>
<g>
	<rect x="28.1" y="56.3" class="st6" width="25.3" height="26.9"/>
</g>
<g>
	<rect x="27.2" y="95.6" class="st0" width="8" height="7.3"/>
</g>
<g>
	<rect x="46.2" y="95.6" class="st0" width="8" height="7.3"/>
</g>
<g>
	<rect x="58.1" y="69.7" class="st6" width="9.8" height="1.3"/>
</g>
<g>
	<rect x="58.1" y="81.4" class="st6" width="9.8" height="1.3"/>
</g>
<g>
	<rect x="58.1" y="72.2" class="st6" width="9.8" height="1.3"/>
</g>
<g>
	<rect x="13.5" y="72.2" class="st6" width="9.8" height="1.3"/>
</g>
<g>
	<rect x="13.5" y="69.7" class="st6" width="9.8" height="1.3"/>
</g>
<g>
	<rect x="13.5" y="81.4" class="st6" width="9.8" height="1.3"/>
</g>
<g>
	<rect x="31.5" y="59.8" class="st11" width="7.4" height="4.4"/>
</g>
<g>
	<rect x="31.5" y="72.2" class="st11" width="17.9" height="4.4"/>
</g>
<g>
	<rect x="31.5" y="65.9" class="st11" width="2.7" height="4.4"/>
</g>
<g>
	<rect x="36.3" y="65.9" class="st11" width="2.7" height="4.4"/>
</g>
<g>
	<rect x="42" y="65.9" class="st11" width="2.7" height="4.4"/>
</g>
<g>
	<rect x="46.8" y="65.9" class="st11" width="2.7" height="4.4"/>
</g>
<g>
	<rect x="42" y="59.8" class="st11" width="7.4" height="4.4"/>
</g>
<g>
	
		<rect x="77.5" y="27.3" transform="matrix(0.9886 0.1504 -0.1504 0.9886 11.9037 -10.9722)" class="st12" width="2" height="91.8"/>
</g>
<g>
	<path class="st13" d="M84.9,30.8c0.4,0.2,6.4-1,10.1,1.5c0,0,2.1,1.3,1.4,2.7c0,0-0.9,1,2,2.3c2.9,1.3,6.8,1.8,11.8,1.5
		c5-0.2,7.1,0,9.1,1.1c2,1.1,2.4,1.7,1.9,5c-0.5,3.3-3.6,24.6-3.6,24.6s-0.2,1.8-1.5,0.9c-1.3-0.9-8.5-3.3-12.6-2.6
		c-4.1,0.7-9.1,0.3-11.7-2.2c0,0-0.5-0.5,0.2-2.1c0.5-1.1,0.1-1.9-2.2-2.5c-2.3-0.6-5.4-1.6-9.3-1.4L84.9,30.8z"/>
</g>
<g>
	<path class="st14" d="M112.4,44.6c-5.1-3.7-11.3,4.7-11.3,4.7s-0.7-8.9-7-8.2c-6.3,0.7-7.1,5.1-6.4,8.9c0.7,3.8,10.3,7.5,10.3,11.1
		c1.8-3.1,10.8-1.6,14.1-3.6C117,54.5,117.5,48.3,112.4,44.6z"/>
</g>
<g>
	<polygon class="st6" points="68.6,10 70.2,10.1 71.6,9.5 72,11 73,12.2 71.7,13 70.9,14.4 69.7,13.3 68.2,13 68.8,11.6 	"/>
</g>
<g>
	<polygon class="st6" points="1.6,25.8 2.9,24.8 3.4,23.3 4.8,24.1 6.3,24.2 5.9,25.8 6.3,27.3 4.8,27.4 3.4,28.2 2.9,26.8 	"/>
</g>
</svg>
