<?xml version="1.0" encoding="utf-8"?>
<!-- Generator: Adobe Illustrator 19.0.0, SVG Export Plug-In . SVG Version: 6.00 Build 0)  -->
<svg version="1.1" id="Layer_1" xmlns="http://www.w3.org/2000/svg" xmlns:xlink="http://www.w3.org/1999/xlink" x="0px" y="0px"
	 viewBox="0 0 149.7 239.5" style="enable-background:new 0 0 149.7 239.5;" xml:space="preserve">
<style type="text/css">
	.st0{fill:url(#SVGID_1_);}
	.st1{fill:#EE2A7B;}
	.st2{fill:url(#SVGID_2_);}
</style>
<linearGradient id="SVGID_1_" gradientUnits="userSpaceOnUse" x1="75.5788" y1="239.7558" x2="75.5788" y2="225.73">
	<stop  offset="0" style="stop-color:#000018"/>
	<stop  offset="1" style="stop-color:#091433"/>
</linearGradient>
<polygon class="st0" points="33.9,226 1.4,229.3 28,233 91.7,236 83.7,239.5 135.2,235.5 149.7,232.8 96.9,229.3 "/>
<g>
	<path class="st1" d="M12.7,113.9c1,1,4.3,2.2,4.3,2.2l3.3,4.5c0,0,1.3,8.8,2.8,10.8c1.5,2,5.5,2.4,5.5,2.4s-6,28-5.5,29.3
		s0,7.8,0,7.8s-5.8,15.8-5.8,18.2c0,2.4,3.7,6.1,3.7,6.1s-5.3,21.9-5,23.3c0.3,1.3,2.3,3.4,2.3,3.4s-1.4,3.3-1.9,7.6h19.2l4-14
		c0,0,2.7-1.7,3.3-5.1c0.7-3.4,3.3-16.2,3.3-16.2l5-14.5l5.3-28.6l5.3,28.6l5,14.5c0,0,2.7,12.8,3.3,16.2c0.7,3.4,3.3,5.1,3.3,5.1
		l4,14h19.2c-0.4-4.3-1.9-7.6-1.9-7.6s2-2,2.3-3.4c0.3-1.3-5-23.3-5-23.3s3.7-3.7,3.7-6.1c0-2.4-5.8-18.2-5.8-18.2s-0.5-6.4,0-7.8
		s-5.5-29.3-5.5-29.3s4-0.3,5.5-2.4c1.5-2,2.8-10.8,2.8-10.8l3.3-4.5c0,0,3.3-1.2,4.3-2.2c1-1,0.7-3,0.7-3s12-9.8,12-13.8
		s-7-20.9-7-20.9s0-4,0-5.7c0-1.7-9.7-13.5-9.7-13.5l-2.3-9.8l-8.7-1.9l-2.5-8.2h-2.5c1.4-3.2,2.2-6.8,2.2-10.6
		C82.8,11.8,71.1,0,56.7,0C42.2,0,30.5,11.8,30.5,26.5c0,3.8,0.8,7.4,2.2,10.6h-2.5l-2.5,8.2L19,47.2l-2.3,9.8
		c0,0-9.7,11.8-9.7,13.5c0,1.7,0,5.7,0,5.7S0,93,0,97s12,13.8,12,13.8S11.7,112.9,12.7,113.9z"/>
	<linearGradient id="SVGID_2_" gradientUnits="userSpaceOnUse" x1="56.6667" y1="312.1282" x2="56.6667" y2="67.6347">
		<stop  offset="0" style="stop-color:#000018"/>
		<stop  offset="1" style="stop-color:#091433"/>
	</linearGradient>
	<path class="st2" d="M105.2,79.3c-0.6,0.2-1.1,0.3-1.4,0.3c-0.7,0-2.8-0.8-2.8-0.8s1.5-0.1,2.1-0.2c0.3-0.1,1-0.3,1.7-0.6
		c-0.2-0.6-0.4-1-0.5-1.4c-1,0-2.4-0.1-3-0.3c-0.9-0.3-3.1-2.3-3.1-2.3s1.9,0.6,2.7,0.7c0.5,0.1,2.1,0.1,3.2,0c0-1.3,0-3.2,0-4.2
		c0-1.3-6-9.2-8.3-12.1l-6.5,2.7l5.3-5.1l-1.9-8.4l-8.3-1.9l-2.4-8h-2.4c1.3-3.2,2.1-6.7,2.1-10.4c0-14.4-11.2-26-24.9-26
		c-13.8,0-24.9,11.6-24.9,26c0,3.7,0.8,7.2,2.1,10.4h-2.4l-2.4,8l-8.3,1.9l-1.9,8.4l5.3,5.1l-6.5-2.7c-2.3,2.9-8.3,10.8-8.3,12.1
		c0,1,0,2.9,0,4.2c1.1,0,2.8,0,3.2,0c0.8-0.1,2.7-0.7,2.7-0.7s-2.2,2-3.1,2.3c-0.6,0.2-1.9,0.3-3,0.3C9,77,8.8,77.5,8.6,78
		c0.7,0.3,1.4,0.5,1.7,0.6c0.6,0.1,2.1,0.2,2.1,0.2s-2.1,0.8-2.8,0.8c-0.3,0-0.9-0.2-1.4-0.3c-1.9,5-5.5,14.6-5.5,17.5
		c0,2.8,5.8,8.5,9.1,11.6l10.9,1.2c0,0-2.3,0.6-4.2,0.8c-1.9,0.2-4.5,0-4.5,0s-0.3,2,0.6,3c1,1,4.1,2.2,4.1,2.2l3.1,4.3l3.2-1.7
		l-2.7,3.9c0.5,2.7,1.4,7.2,2.4,8.6c1.4,2,5.2,2.3,5.2,2.3s-5.7,27.5-5.2,28.8c0.3,0.9,0.2,4.1,0.1,6l4.4-1.7l-4.7,3.8
		c-1,2.7-5.4,15.3-5.4,17.4c0,0.1,0,0.2,0,0.2l3.2-1.1l-2.7,2.7c0.4,0.9,1.1,1.8,1.6,2.6l4.3-2.1l-2.9,3.7c0,0-5.1,21.5-4.8,22.9
		c0.1,0.6,0.7,1.4,1.1,2c0.8-0.3,1.9-0.8,2.2-1.1c0.4-0.3,2.5-2.4,2.5-2.4s-1.3,3.2-1.9,3.7c-0.4,0.3-1.2,0.8-1.7,1c0,0,0,0,0,0
		s-1.9,4.6-1.9,9.9H36l4.4-16.2c0,0,2.5-1.7,3.2-5c0.6-3.3,3.2-15.9,3.2-15.9l4.8-14.3l5.1-28.2l5.1,28.2l4.8,14.3
		c0,0,2.5,12.6,3.2,15.9c0.6,3.3,3.2,5,3.2,5l4.4,16.2h17.8c0-5.3-1.9-9.9-1.9-9.9s0,0,0,0c-0.6-0.3-1.4-0.7-1.7-1
		c-0.6-0.5-1.9-3.7-1.9-3.7s2,2.1,2.5,2.4c0.3,0.2,1.4,0.7,2.2,1.1c0.5-0.6,1-1.4,1.1-2c0.3-1.3-4.8-22.9-4.8-22.9l-2.9-3.7l4.3,2.1
		c0.6-0.7,1.2-1.7,1.6-2.6l-2.7-2.7l3.2,1.1c0-0.1,0-0.2,0-0.2c0-2.1-4.4-14.6-5.4-17.4l-4.7-3.8l4.4,1.7c-0.1-2-0.2-5.1,0.1-6
		c0.5-1.3-5.2-28.8-5.2-28.8s3.8-0.3,5.2-2.3c1-1.4,1.9-5.9,2.4-8.6l-2.7-3.9l3.2,1.7l3.1-4.3c0,0,3.2-1.2,4.1-2.2c1-1,0.6-3,0.6-3
		s-2.6,0.2-4.5,0c-1.9-0.2-4.2-0.8-4.2-0.8l10.9-1.2c3.3-3,9.1-8.7,9.1-11.6C110.7,93.9,107.1,84.3,105.2,79.3z"/>
</g>
</svg>
