<?xml version="1.0" encoding="utf-8"?>
<!-- Generator: Adobe Illustrator 19.0.0, SVG Export Plug-In . SVG Version: 6.00 Build 0)  -->
<svg version="1.1" id="Layer_1" xmlns="http://www.w3.org/2000/svg" xmlns:xlink="http://www.w3.org/1999/xlink" x="0px" y="0px"
	 viewBox="0 0 415.8 435.9" style="enable-background:new 0 0 415.8 435.9;" xml:space="preserve">
<style type="text/css">
	.st0{fill:url(#XMLID_26_);}
	.st1{fill:#EC297B;}
	.st2{fill:url(#XMLID_27_);}
	.st3{fill:none;}
	.st4{fill:#AD2367;}
	.st5{font-family:'Impact';}
	.st6{font-size:48px;}
	.st7{letter-spacing:3;}
</style>
<g id="XMLID_8_">
	<g id="XMLID_2_">
		<linearGradient id="XMLID_26_" gradientUnits="userSpaceOnUse" x1="130.9105" y1="436.2819" x2="130.9105" y2="411.9876">
			<stop  offset="0" style="stop-color:#000018"/>
			<stop  offset="1" style="stop-color:#091433"/>
		</linearGradient>
		<polygon id="XMLID_10_" class="st0" points="58.7,412.5 2.5,418.2 48.4,424.6 158.9,429.8 145,435.9 234.2,429 259.3,424.2 
			167.8,418.2 		"/>
		<g id="XMLID_5_">
			<path id="XMLID_7_" class="st1" d="M21.9,218.3c1.7,1.8,7.5,3.8,7.5,3.8l5.8,7.9c0,0,2.3,15.2,4.9,18.7c2.6,3.5,9.5,4.1,9.5,4.1
				s-10.4,48.4-9.5,50.8c0.9,2.3,0,13.4,0,13.4S30,344.3,30,348.4s6.4,10.5,6.4,10.5s-9.2,37.9-8.7,40.3c0.6,2.3,4,5.8,4,5.8
				s-2.4,5.8-3.2,13.2h33.3l6.9-24.3c0,0,4.6-2.9,5.8-8.8c1.2-5.8,5.8-28,5.8-28l8.7-25.1l9.2-49.6l9.2,49.6l8.7,25.1
				c0,0,4.6,22.2,5.8,28c1.2,5.8,5.8,8.8,5.8,8.8l6.9,24.3h33.3c-0.8-7.4-3.2-13.2-3.2-13.2s3.5-3.5,4-5.8
				c0.6-2.3-8.7-40.3-8.7-40.3s6.4-6.4,6.4-10.5s-10.1-31.5-10.1-31.5s-0.9-11.1,0-13.4c0.9-2.3-9.5-50.8-9.5-50.8s6.9-0.6,9.5-4.1
				c2.6-3.5,4.9-18.7,4.9-18.7l5.8-7.9c0,0,5.8-2,7.5-3.8c1.7-1.8,1.2-5.3,1.2-5.3s20.8-16.9,20.8-23.9c0-7-12.1-36.2-12.1-36.2
				s0-7,0-9.9c0-2.9-16.7-23.3-16.7-23.3l-4-16.9l-15.1-3.4L144,85.2h-4.3c2.4-5.6,3.8-11.8,3.8-18.4c0-25.3-20.3-45.8-45.3-45.8
				c-25,0-45.3,20.5-45.3,45.8c0,6.5,1.4,12.8,3.8,18.4h-4.3l-4.3,14.1l-15.1,3.4l-4,16.9c0,0-16.7,20.4-16.7,23.3
				c0,2.9,0,9.9,0,9.9S0,182.1,0,189.1c0,7,20.8,23.9,20.8,23.9S20.2,216.5,21.9,218.3z"/>
			<linearGradient id="XMLID_27_" gradientUnits="userSpaceOnUse" x1="98.1528" y1="561.6385" x2="98.1528" y2="138.1495">
				<stop  offset="0" style="stop-color:#000018"/>
				<stop  offset="1" style="stop-color:#091433"/>
			</linearGradient>
			<path id="XMLID_6_" class="st2" d="M182.2,158.3c-1,0.3-1.9,0.6-2.4,0.6c-1.3,0.1-4.8-1.4-4.8-1.4s2.6-0.1,3.6-0.3
				c0.5-0.1,1.7-0.6,2.9-1c-0.4-1-0.7-1.8-0.9-2.3c-1.8-0.1-4.2-0.2-5.1-0.5c-1.6-0.5-5.4-4-5.4-4s3.4,1.1,4.7,1.3
				c0.8,0.1,3.6,0.1,5.6,0.1c0-2.3,0-5.6,0-7.3c0-2.3-10.5-15.9-14.4-21l-11.2,4.7l9.2-8.8l-3.4-14.5l-14.4-3.3l-4.1-13.9h-4.1
				c2.3-5.5,3.6-11.6,3.6-18.1c0-24.9-19.3-45.1-43.2-45.1C74.3,23.3,55,43.5,55,68.4c0,6.4,1.3,12.5,3.6,18.1h-4.1l-4.1,13.9
				L36,103.7l-3.4,14.5l9.2,8.8l-11.2-4.7c-4,5.1-14.4,18.7-14.4,21c0,1.8,0,5.1,0,7.3c2,0,4.8,0.1,5.6-0.1c1.3-0.2,4.7-1.3,4.7-1.3
				s-3.8,3.5-5.4,4c-1,0.3-3.3,0.4-5.1,0.5c-0.2,0.5-0.5,1.3-0.9,2.3c1.2,0.5,2.4,0.9,2.9,1c1,0.2,3.6,0.3,3.6,0.3s-3.6,1.5-4.8,1.4
				c-0.5,0-1.5-0.3-2.4-0.6c-3.3,8.6-9.5,25.3-9.5,30.3c0,4.9,10.1,14.8,15.8,20l19,2.2c0,0-3.9,1-7.2,1.3c-3.3,0.3-7.8,0-7.8,0
				s-0.6,3.4,1.1,5.2c1.7,1.7,7.2,3.7,7.2,3.7l5.3,7.5l5.5-3l-4.7,6.7c0.8,4.6,2.4,12.5,4.1,14.9c2.5,3.4,9.1,4,9.1,4
				s-9.9,47.6-9.1,49.9c0.6,1.6,0.4,7.1,0.2,10.5l7.6-2.9l-8.1,6.6c-1.7,4.7-9.3,26.5-9.3,30.1c0,0.1,0,0.3,0,0.4l5.5-1.9l-4.7,4.6
				c0.7,1.6,1.8,3.2,2.8,4.5l7.4-3.7l-5,6.4c0,0-8.8,37.3-8.3,39.6c0.3,1.1,1.1,2.4,2,3.5c1.3-0.6,3.4-1.4,3.8-1.8
				c0.8-0.6,4.3-4.2,4.3-4.2s-2.3,5.5-3.3,6.3c-0.6,0.5-2.1,1.3-3,1.8c0,0,0,0.1,0,0.1s-3.3,8-3.3,17.2h30.8l7.7-28.1
				c0,0,4.4-2.9,5.5-8.6c1.1-5.7,5.5-27.6,5.5-27.6l8.3-24.7l8.8-48.8l8.8,48.8l8.3,24.7c0,0,4.4,21.8,5.5,27.6
				c1.1,5.7,5.5,8.6,5.5,8.6l7.7,28.1h30.8c0-9.2-3.3-17.2-3.3-17.2s0,0,0-0.1c-1-0.5-2.4-1.3-3-1.8c-1-0.9-3.3-6.3-3.3-6.3
				s3.5,3.6,4.3,4.2c0.5,0.4,2.5,1.3,3.8,1.8c0.8-1.1,1.7-2.4,2-3.5c0.6-2.3-8.3-39.6-8.3-39.6l-5-6.4l7.4,3.7
				c1-1.3,2.1-2.9,2.8-4.5l-4.7-4.6l5.5,1.9c0-0.1,0-0.3,0-0.4c0-3.6-7.6-25.4-9.3-30.1l-8.1-6.6l7.6,2.9c-0.2-3.4-0.4-8.9,0.2-10.5
				c0.8-2.3-9.1-49.9-9.1-49.9s6.6-0.6,9.1-4c1.7-2.4,3.3-10.3,4.1-14.9l-4.7-6.7l5.5,3l5.3-7.5c0,0,5.5-2,7.2-3.7
				c1.7-1.7,1.1-5.2,1.1-5.2s-4.4,0.3-7.8,0c-3.3-0.3-7.2-1.3-7.2-1.3l19-2.2c5.8-5.3,15.8-15.1,15.8-20
				C191.7,183.6,185.5,167,182.2,158.3z"/>
		</g>
	</g>
	<rect id="XMLID_3_" x="171.3" class="st3" width="244.5" height="42"/>
	<text id="XMLID_4_" transform="matrix(1 0 0 1 171.3365 37.9671)" class="st4 st5 st6 st7">WELL DONE!</text>
</g>
</svg>
